<mxfile host="app.diagrams.net" agent="Mozilla/5.0 (Windows NT 10.0; Win64; x64; rv:130.0) Gecko/20100101 Firefox/130.0" version="24.7.17">
  <diagram name="Page-1" id="jBy0112xdUdWwogq2Mr7">
    <mxGraphModel dx="1364" dy="710" grid="1" gridSize="10" guides="1" tooltips="1" connect="1" arrows="1" fold="1" page="1" pageScale="1" pageWidth="850" pageHeight="1100" math="0" shadow="0">
      <root>
        <mxCell id="0" />
        <mxCell id="1" parent="0" />
        <mxCell id="vlcMxP6JeE746XGNywpA-1" value="" style="rounded=0;whiteSpace=wrap;html=1;" parent="1" vertex="1">
          <mxGeometry x="855" y="420" width="20" height="60" as="geometry" />
        </mxCell>
        <mxCell id="vlcMxP6JeE746XGNywpA-2" value="" style="rounded=0;whiteSpace=wrap;html=1;" parent="1" vertex="1">
          <mxGeometry x="625" y="340" width="20" height="140" as="geometry" />
        </mxCell>
        <mxCell id="vlcMxP6JeE746XGNywpA-3" value="" style="rounded=0;whiteSpace=wrap;html=1;" parent="1" vertex="1">
          <mxGeometry x="407.5" y="600" width="20" height="60" as="geometry" />
        </mxCell>
        <mxCell id="vlcMxP6JeE746XGNywpA-4" value="" style="rounded=0;whiteSpace=wrap;html=1;" parent="1" vertex="1">
          <mxGeometry x="405" y="240" width="20" height="60" as="geometry" />
        </mxCell>
        <mxCell id="vlcMxP6JeE746XGNywpA-5" value="" style="rounded=0;whiteSpace=wrap;html=1;" parent="1" vertex="1">
          <mxGeometry x="170" y="180" width="20" height="390" as="geometry" />
        </mxCell>
        <mxCell id="vlcMxP6JeE746XGNywpA-6" value="" style="rounded=0;whiteSpace=wrap;html=1;fillColor=none;" parent="1" vertex="1">
          <mxGeometry x="180" y="310" width="450" height="60" as="geometry" />
        </mxCell>
        <mxCell id="vlcMxP6JeE746XGNywpA-7" value="System" style="rounded=0;whiteSpace=wrap;html=1;" parent="1" vertex="1">
          <mxGeometry x="110" y="110" width="150" height="30" as="geometry" />
        </mxCell>
        <mxCell id="vlcMxP6JeE746XGNywpA-8" value="" style="endArrow=none;dashed=1;html=1;dashPattern=1 3;strokeWidth=2;rounded=0;entryX=0.5;entryY=1;entryDx=0;entryDy=0;" parent="1" source="vlcMxP6JeE746XGNywpA-5" target="vlcMxP6JeE746XGNywpA-7" edge="1">
          <mxGeometry width="50" height="50" relative="1" as="geometry">
            <mxPoint x="185" y="600" as="sourcePoint" />
            <mxPoint x="450" y="280" as="targetPoint" />
          </mxGeometry>
        </mxCell>
        <mxCell id="vlcMxP6JeE746XGNywpA-9" value="&lt;font style=&quot;font-size: 19px;&quot;&gt;\LOGIN&lt;/font&gt;" style="shape=note;whiteSpace=wrap;html=1;backgroundOutline=1;darkOpacity=0.05;" parent="1" vertex="1">
          <mxGeometry x="20" y="10" width="160" height="80" as="geometry" />
        </mxCell>
        <mxCell id="vlcMxP6JeE746XGNywpA-10" value="" style="endArrow=classic;html=1;rounded=0;" parent="1" edge="1">
          <mxGeometry width="50" height="50" relative="1" as="geometry">
            <mxPoint x="40" y="160" as="sourcePoint" />
            <mxPoint x="180" y="160" as="targetPoint" />
          </mxGeometry>
        </mxCell>
        <mxCell id="vlcMxP6JeE746XGNywpA-11" value="UI input(email &amp;amp; password)" style="edgeLabel;html=1;align=center;verticalAlign=middle;resizable=0;points=[];" parent="vlcMxP6JeE746XGNywpA-10" vertex="1" connectable="0">
          <mxGeometry x="-0.6118" y="-2" relative="1" as="geometry">
            <mxPoint x="23" y="-12" as="offset" />
          </mxGeometry>
        </mxCell>
        <mxCell id="vlcMxP6JeE746XGNywpA-12" value="" style="endArrow=classic;html=1;rounded=0;" parent="1" edge="1">
          <mxGeometry width="50" height="50" relative="1" as="geometry">
            <mxPoint x="190" y="190" as="sourcePoint" />
            <mxPoint x="180" y="230" as="targetPoint" />
            <Array as="points">
              <mxPoint x="240" y="190" />
              <mxPoint x="240" y="230" />
            </Array>
          </mxGeometry>
        </mxCell>
        <mxCell id="vlcMxP6JeE746XGNywpA-13" value="login()" style="edgeLabel;html=1;align=center;verticalAlign=middle;resizable=0;points=[];" parent="vlcMxP6JeE746XGNywpA-12" vertex="1" connectable="0">
          <mxGeometry x="-0.6118" y="-2" relative="1" as="geometry">
            <mxPoint x="11" y="-12" as="offset" />
          </mxGeometry>
        </mxCell>
        <mxCell id="vlcMxP6JeE746XGNywpA-14" value="User" style="rounded=0;whiteSpace=wrap;html=1;" parent="1" vertex="1">
          <mxGeometry x="340" y="110" width="150" height="30" as="geometry" />
        </mxCell>
        <mxCell id="vlcMxP6JeE746XGNywpA-15" value="" style="endArrow=none;dashed=1;html=1;dashPattern=1 3;strokeWidth=2;rounded=0;entryX=0.5;entryY=1;entryDx=0;entryDy=0;" parent="1" source="vlcMxP6JeE746XGNywpA-4" target="vlcMxP6JeE746XGNywpA-14" edge="1">
          <mxGeometry width="50" height="50" relative="1" as="geometry">
            <mxPoint x="415" y="600" as="sourcePoint" />
            <mxPoint x="680" y="280" as="targetPoint" />
          </mxGeometry>
        </mxCell>
        <mxCell id="vlcMxP6JeE746XGNywpA-16" value="" style="endArrow=classic;html=1;rounded=0;" parent="1" edge="1">
          <mxGeometry width="50" height="50" relative="1" as="geometry">
            <mxPoint x="190" y="260" as="sourcePoint" />
            <mxPoint x="410" y="260" as="targetPoint" />
          </mxGeometry>
        </mxCell>
        <mxCell id="vlcMxP6JeE746XGNywpA-17" value="getRecord(email)" style="edgeLabel;html=1;align=center;verticalAlign=middle;resizable=0;points=[];" parent="vlcMxP6JeE746XGNywpA-16" vertex="1" connectable="0">
          <mxGeometry x="-0.6118" y="-2" relative="1" as="geometry">
            <mxPoint x="53" y="-12" as="offset" />
          </mxGeometry>
        </mxCell>
        <mxCell id="vlcMxP6JeE746XGNywpA-18" value="" style="endArrow=none;html=1;rounded=0;dashed=1;dashPattern=8 8;startArrow=classic;startFill=1;endFill=0;" parent="1" edge="1">
          <mxGeometry width="50" height="50" relative="1" as="geometry">
            <mxPoint x="190" y="290" as="sourcePoint" />
            <mxPoint x="410" y="290" as="targetPoint" />
          </mxGeometry>
        </mxCell>
        <mxCell id="vlcMxP6JeE746XGNywpA-19" value="user info" style="edgeLabel;html=1;align=center;verticalAlign=middle;resizable=0;points=[];" parent="vlcMxP6JeE746XGNywpA-18" vertex="1" connectable="0">
          <mxGeometry x="0.2972" y="2" relative="1" as="geometry">
            <mxPoint x="-33" y="-8" as="offset" />
          </mxGeometry>
        </mxCell>
        <mxCell id="vlcMxP6JeE746XGNywpA-20" value="Session manager" style="rounded=0;whiteSpace=wrap;html=1;" parent="1" vertex="1">
          <mxGeometry x="560" y="110" width="150" height="30" as="geometry" />
        </mxCell>
        <mxCell id="vlcMxP6JeE746XGNywpA-21" value="" style="endArrow=none;dashed=1;html=1;dashPattern=1 3;strokeWidth=2;rounded=0;entryX=0.5;entryY=1;entryDx=0;entryDy=0;" parent="1" source="vlcMxP6JeE746XGNywpA-2" edge="1">
          <mxGeometry width="50" height="50" relative="1" as="geometry">
            <mxPoint x="634.66" y="600" as="sourcePoint" />
            <mxPoint x="634.66" y="140" as="targetPoint" />
          </mxGeometry>
        </mxCell>
        <mxCell id="vlcMxP6JeE746XGNywpA-22" value="" style="endArrow=classic;html=1;rounded=0;" parent="1" edge="1">
          <mxGeometry width="50" height="50" relative="1" as="geometry">
            <mxPoint x="190" y="350" as="sourcePoint" />
            <mxPoint x="630" y="350" as="targetPoint" />
          </mxGeometry>
        </mxCell>
        <mxCell id="vlcMxP6JeE746XGNywpA-23" value="generateToken(email ...)" style="edgeLabel;html=1;align=center;verticalAlign=middle;resizable=0;points=[];" parent="vlcMxP6JeE746XGNywpA-22" vertex="1" connectable="0">
          <mxGeometry x="-0.6118" y="-2" relative="1" as="geometry">
            <mxPoint x="139" y="-12" as="offset" />
          </mxGeometry>
        </mxCell>
        <mxCell id="vlcMxP6JeE746XGNywpA-24" value="if password is corrrect" style="text;strokeColor=none;fillColor=none;align=left;verticalAlign=middle;spacingLeft=4;spacingRight=4;overflow=hidden;points=[[0,0.5],[1,0.5]];portConstraint=eastwest;rotatable=0;whiteSpace=wrap;html=1;" parent="1" vertex="1">
          <mxGeometry x="190" y="310" width="160" height="30" as="geometry" />
        </mxCell>
        <mxCell id="vlcMxP6JeE746XGNywpA-25" value="" style="endArrow=none;html=1;rounded=0;startArrow=classic;startFill=1;endFill=0;dashed=1;dashPattern=8 8;" parent="1" edge="1">
          <mxGeometry width="50" height="50" relative="1" as="geometry">
            <mxPoint x="190" y="390" as="sourcePoint" />
            <mxPoint x="630" y="390" as="targetPoint" />
          </mxGeometry>
        </mxCell>
        <mxCell id="vlcMxP6JeE746XGNywpA-26" value="token" style="edgeLabel;html=1;align=center;verticalAlign=middle;resizable=0;points=[];" parent="vlcMxP6JeE746XGNywpA-25" vertex="1" connectable="0">
          <mxGeometry x="-0.6118" y="-2" relative="1" as="geometry">
            <mxPoint x="139" y="-12" as="offset" />
          </mxGeometry>
        </mxCell>
        <mxCell id="vlcMxP6JeE746XGNywpA-27" value="" style="endArrow=classic;html=1;rounded=0;" parent="1" edge="1">
          <mxGeometry width="50" height="50" relative="1" as="geometry">
            <mxPoint x="192.5" y="510" as="sourcePoint" />
            <mxPoint x="182.5" y="550" as="targetPoint" />
            <Array as="points">
              <mxPoint x="242.5" y="510" />
              <mxPoint x="242.5" y="550" />
            </Array>
          </mxGeometry>
        </mxCell>
        <mxCell id="vlcMxP6JeE746XGNywpA-28" value="tokenRequired()" style="edgeLabel;html=1;align=center;verticalAlign=middle;resizable=0;points=[];" parent="vlcMxP6JeE746XGNywpA-27" vertex="1" connectable="0">
          <mxGeometry x="-0.6118" y="-2" relative="1" as="geometry">
            <mxPoint x="21" y="-12" as="offset" />
          </mxGeometry>
        </mxCell>
        <mxCell id="vlcMxP6JeE746XGNywpA-29" value="" style="endArrow=classic;html=1;rounded=0;" parent="1" edge="1">
          <mxGeometry width="50" height="50" relative="1" as="geometry">
            <mxPoint x="182.5" y="570" as="sourcePoint" />
            <mxPoint x="622.5" y="570" as="targetPoint" />
          </mxGeometry>
        </mxCell>
        <mxCell id="vlcMxP6JeE746XGNywpA-30" value="decodeToken(token)" style="edgeLabel;html=1;align=center;verticalAlign=middle;resizable=0;points=[];" parent="vlcMxP6JeE746XGNywpA-29" vertex="1" connectable="0">
          <mxGeometry x="-0.6118" y="-2" relative="1" as="geometry">
            <mxPoint x="139" y="-12" as="offset" />
          </mxGeometry>
        </mxCell>
        <mxCell id="vlcMxP6JeE746XGNywpA-31" value="" style="endArrow=classic;html=1;rounded=0;" parent="1" edge="1">
          <mxGeometry width="50" height="50" relative="1" as="geometry">
            <mxPoint x="182.5" y="620" as="sourcePoint" />
            <mxPoint x="422.5" y="620" as="targetPoint" />
          </mxGeometry>
        </mxCell>
        <mxCell id="vlcMxP6JeE746XGNywpA-32" value="getRecord(email)" style="edgeLabel;html=1;align=center;verticalAlign=middle;resizable=0;points=[];" parent="vlcMxP6JeE746XGNywpA-31" vertex="1" connectable="0">
          <mxGeometry x="-0.6118" y="-2" relative="1" as="geometry">
            <mxPoint x="53" y="-12" as="offset" />
          </mxGeometry>
        </mxCell>
        <mxCell id="vlcMxP6JeE746XGNywpA-33" value="" style="endArrow=none;html=1;rounded=0;startArrow=classic;startFill=1;endFill=0;dashed=1;dashPattern=8 8;" parent="1" edge="1">
          <mxGeometry width="50" height="50" relative="1" as="geometry">
            <mxPoint x="187.5" y="590" as="sourcePoint" />
            <mxPoint x="627.5" y="590" as="targetPoint" />
          </mxGeometry>
        </mxCell>
        <mxCell id="vlcMxP6JeE746XGNywpA-34" value="email and etc that was used to create a token" style="edgeLabel;html=1;align=center;verticalAlign=middle;resizable=0;points=[];" parent="vlcMxP6JeE746XGNywpA-33" vertex="1" connectable="0">
          <mxGeometry x="-0.6118" y="-2" relative="1" as="geometry">
            <mxPoint x="139" y="-12" as="offset" />
          </mxGeometry>
        </mxCell>
        <mxCell id="vlcMxP6JeE746XGNywpA-35" value="" style="endArrow=none;html=1;rounded=0;dashed=1;dashPattern=8 8;startArrow=classic;startFill=1;endFill=0;" parent="1" edge="1">
          <mxGeometry width="50" height="50" relative="1" as="geometry">
            <mxPoint x="182.5" y="640" as="sourcePoint" />
            <mxPoint x="412.5" y="640" as="targetPoint" />
          </mxGeometry>
        </mxCell>
        <mxCell id="vlcMxP6JeE746XGNywpA-36" value="user info" style="edgeLabel;html=1;align=center;verticalAlign=middle;resizable=0;points=[];" parent="vlcMxP6JeE746XGNywpA-35" vertex="1" connectable="0">
          <mxGeometry x="0.2972" y="2" relative="1" as="geometry">
            <mxPoint x="-33" y="-8" as="offset" />
          </mxGeometry>
        </mxCell>
        <mxCell id="vlcMxP6JeE746XGNywpA-37" value="" style="endArrow=none;dashed=1;html=1;dashPattern=1 3;strokeWidth=2;rounded=0;entryX=0.5;entryY=1;entryDx=0;entryDy=0;" parent="1" target="vlcMxP6JeE746XGNywpA-5" edge="1">
          <mxGeometry width="50" height="50" relative="1" as="geometry">
            <mxPoint x="180" y="670" as="sourcePoint" />
            <mxPoint x="185" y="140" as="targetPoint" />
          </mxGeometry>
        </mxCell>
        <mxCell id="vlcMxP6JeE746XGNywpA-38" value="" style="endArrow=none;dashed=1;html=1;dashPattern=1 3;strokeWidth=2;rounded=0;entryX=0.5;entryY=1;entryDx=0;entryDy=0;" parent="1" source="vlcMxP6JeE746XGNywpA-3" target="vlcMxP6JeE746XGNywpA-4" edge="1">
          <mxGeometry width="50" height="50" relative="1" as="geometry">
            <mxPoint x="415" y="600" as="sourcePoint" />
            <mxPoint x="415" y="140" as="targetPoint" />
          </mxGeometry>
        </mxCell>
        <mxCell id="vlcMxP6JeE746XGNywpA-39" value="" style="endArrow=none;dashed=1;html=1;dashPattern=1 3;strokeWidth=2;rounded=0;entryX=0.5;entryY=1;entryDx=0;entryDy=0;" parent="1" target="vlcMxP6JeE746XGNywpA-3" edge="1">
          <mxGeometry width="50" height="50" relative="1" as="geometry">
            <mxPoint x="415" y="600" as="sourcePoint" />
            <mxPoint x="415" y="300" as="targetPoint" />
          </mxGeometry>
        </mxCell>
        <mxCell id="vlcMxP6JeE746XGNywpA-40" value="" style="endArrow=none;dashed=1;html=1;dashPattern=1 3;strokeWidth=2;rounded=0;entryX=0.5;entryY=1;entryDx=0;entryDy=0;" parent="1" target="vlcMxP6JeE746XGNywpA-2" edge="1">
          <mxGeometry width="50" height="50" relative="1" as="geometry">
            <mxPoint x="640" y="650" as="sourcePoint" />
            <mxPoint x="634.66" y="140" as="targetPoint" />
          </mxGeometry>
        </mxCell>
        <mxCell id="vlcMxP6JeE746XGNywpA-41" value="" style="rounded=0;whiteSpace=wrap;html=1;" parent="1" vertex="1">
          <mxGeometry x="627.5" y="550" width="20" height="60" as="geometry" />
        </mxCell>
        <mxCell id="vlcMxP6JeE746XGNywpA-42" value="" style="endArrow=classic;html=1;rounded=0;" parent="1" edge="1">
          <mxGeometry width="50" height="50" relative="1" as="geometry">
            <mxPoint x="190" y="420" as="sourcePoint" />
            <mxPoint x="630" y="420" as="targetPoint" />
          </mxGeometry>
        </mxCell>
        <mxCell id="vlcMxP6JeE746XGNywpA-43" value="createSession(userInfo)" style="edgeLabel;html=1;align=center;verticalAlign=middle;resizable=0;points=[];" parent="vlcMxP6JeE746XGNywpA-42" vertex="1" connectable="0">
          <mxGeometry x="-0.6118" y="-2" relative="1" as="geometry">
            <mxPoint x="139" y="-12" as="offset" />
          </mxGeometry>
        </mxCell>
        <mxCell id="vlcMxP6JeE746XGNywpA-44" value="Patient/Worker" style="rounded=0;whiteSpace=wrap;html=1;" parent="1" vertex="1">
          <mxGeometry x="790" y="110" width="150" height="30" as="geometry" />
        </mxCell>
        <mxCell id="vlcMxP6JeE746XGNywpA-45" value="" style="endArrow=none;dashed=1;html=1;dashPattern=1 3;strokeWidth=2;rounded=0;entryX=0.5;entryY=1;entryDx=0;entryDy=0;" parent="1" edge="1">
          <mxGeometry width="50" height="50" relative="1" as="geometry">
            <mxPoint x="865" y="670" as="sourcePoint" />
            <mxPoint x="864.66" y="140" as="targetPoint" />
          </mxGeometry>
        </mxCell>
        <mxCell id="vlcMxP6JeE746XGNywpA-46" value="" style="endArrow=classic;html=1;rounded=0;" parent="1" edge="1">
          <mxGeometry width="50" height="50" relative="1" as="geometry">
            <mxPoint x="645" y="440" as="sourcePoint" />
            <mxPoint x="860" y="440" as="targetPoint" />
          </mxGeometry>
        </mxCell>
        <mxCell id="vlcMxP6JeE746XGNywpA-47" value="__init__()" style="edgeLabel;html=1;align=center;verticalAlign=middle;resizable=0;points=[];" parent="vlcMxP6JeE746XGNywpA-46" vertex="1" connectable="0">
          <mxGeometry x="-0.6118" y="-2" relative="1" as="geometry">
            <mxPoint x="53" y="-12" as="offset" />
          </mxGeometry>
        </mxCell>
        <mxCell id="vlcMxP6JeE746XGNywpA-48" value="" style="endArrow=none;html=1;rounded=0;startArrow=classic;startFill=1;endFill=0;dashed=1;dashPattern=8 8;" parent="1" edge="1">
          <mxGeometry width="50" height="50" relative="1" as="geometry">
            <mxPoint x="645" y="469.17" as="sourcePoint" />
            <mxPoint x="860" y="469.17" as="targetPoint" />
          </mxGeometry>
        </mxCell>
        <mxCell id="vlcMxP6JeE746XGNywpA-49" value="obj" style="edgeLabel;html=1;align=center;verticalAlign=middle;resizable=0;points=[];" parent="vlcMxP6JeE746XGNywpA-48" vertex="1" connectable="0">
          <mxGeometry x="-0.6118" y="-2" relative="1" as="geometry">
            <mxPoint x="53" y="-12" as="offset" />
          </mxGeometry>
        </mxCell>
        <mxCell id="5okOZo9si-GueQBWzHtH-1" value="" style="rounded=0;whiteSpace=wrap;html=1;" vertex="1" parent="1">
          <mxGeometry x="415" y="1010" width="20" height="60" as="geometry" />
        </mxCell>
        <mxCell id="5okOZo9si-GueQBWzHtH-2" value="" style="rounded=0;whiteSpace=wrap;html=1;" vertex="1" parent="1">
          <mxGeometry x="200" y="880" width="20" height="260" as="geometry" />
        </mxCell>
        <mxCell id="5okOZo9si-GueQBWzHtH-3" value="System" style="rounded=0;whiteSpace=wrap;html=1;" vertex="1" parent="1">
          <mxGeometry x="140" y="810" width="150" height="30" as="geometry" />
        </mxCell>
        <mxCell id="5okOZo9si-GueQBWzHtH-4" value="" style="endArrow=none;dashed=1;html=1;dashPattern=1 3;strokeWidth=2;rounded=0;entryX=0.5;entryY=1;entryDx=0;entryDy=0;" edge="1" parent="1" source="5okOZo9si-GueQBWzHtH-2" target="5okOZo9si-GueQBWzHtH-3">
          <mxGeometry width="50" height="50" relative="1" as="geometry">
            <mxPoint x="215" y="1300" as="sourcePoint" />
            <mxPoint x="480" y="980" as="targetPoint" />
          </mxGeometry>
        </mxCell>
        <mxCell id="5okOZo9si-GueQBWzHtH-5" value="&lt;font style=&quot;font-size: 19px;&quot;&gt;\REGISTRATION&lt;/font&gt;" style="shape=note;whiteSpace=wrap;html=1;backgroundOutline=1;darkOpacity=0.05;" vertex="1" parent="1">
          <mxGeometry x="50" y="710" width="200" height="80" as="geometry" />
        </mxCell>
        <mxCell id="5okOZo9si-GueQBWzHtH-6" value="" style="endArrow=classic;html=1;rounded=0;" edge="1" parent="1">
          <mxGeometry width="50" height="50" relative="1" as="geometry">
            <mxPoint x="70" y="860" as="sourcePoint" />
            <mxPoint x="210" y="860" as="targetPoint" />
          </mxGeometry>
        </mxCell>
        <mxCell id="5okOZo9si-GueQBWzHtH-7" value="Patient input" style="edgeLabel;html=1;align=center;verticalAlign=middle;resizable=0;points=[];" vertex="1" connectable="0" parent="5okOZo9si-GueQBWzHtH-6">
          <mxGeometry x="-0.6118" y="-2" relative="1" as="geometry">
            <mxPoint x="23" y="-12" as="offset" />
          </mxGeometry>
        </mxCell>
        <mxCell id="5okOZo9si-GueQBWzHtH-8" value="" style="endArrow=classic;html=1;rounded=0;" edge="1" parent="1">
          <mxGeometry width="50" height="50" relative="1" as="geometry">
            <mxPoint x="220" y="890" as="sourcePoint" />
            <mxPoint x="210" y="930" as="targetPoint" />
            <Array as="points">
              <mxPoint x="270" y="890" />
              <mxPoint x="270" y="930" />
            </Array>
          </mxGeometry>
        </mxCell>
        <mxCell id="5okOZo9si-GueQBWzHtH-9" value="register()" style="edgeLabel;html=1;align=center;verticalAlign=middle;resizable=0;points=[];" vertex="1" connectable="0" parent="5okOZo9si-GueQBWzHtH-8">
          <mxGeometry x="-0.6118" y="-2" relative="1" as="geometry">
            <mxPoint x="11" y="-12" as="offset" />
          </mxGeometry>
        </mxCell>
        <mxCell id="5okOZo9si-GueQBWzHtH-10" value="" style="endArrow=classic;html=1;rounded=0;" edge="1" parent="1">
          <mxGeometry width="50" height="50" relative="1" as="geometry">
            <mxPoint x="220" y="1090" as="sourcePoint" />
            <mxPoint x="630" y="1090" as="targetPoint" />
          </mxGeometry>
        </mxCell>
        <mxCell id="5okOZo9si-GueQBWzHtH-11" value="createPatient()" style="edgeLabel;html=1;align=center;verticalAlign=middle;resizable=0;points=[];" vertex="1" connectable="0" parent="5okOZo9si-GueQBWzHtH-10">
          <mxGeometry x="-0.6118" y="-2" relative="1" as="geometry">
            <mxPoint x="101" y="-12" as="offset" />
          </mxGeometry>
        </mxCell>
        <mxCell id="5okOZo9si-GueQBWzHtH-12" value="" style="endArrow=none;html=1;rounded=0;dashed=1;dashPattern=8 8;startArrow=classic;startFill=1;endFill=0;" edge="1" parent="1">
          <mxGeometry width="50" height="50" relative="1" as="geometry">
            <mxPoint x="225" y="1130" as="sourcePoint" />
            <mxPoint x="635" y="1130" as="targetPoint" />
          </mxGeometry>
        </mxCell>
        <mxCell id="5okOZo9si-GueQBWzHtH-13" value="conformation" style="edgeLabel;html=1;align=center;verticalAlign=middle;resizable=0;points=[];" vertex="1" connectable="0" parent="5okOZo9si-GueQBWzHtH-12">
          <mxGeometry x="0.2972" y="2" relative="1" as="geometry">
            <mxPoint x="-71" y="-8" as="offset" />
          </mxGeometry>
        </mxCell>
        <mxCell id="5okOZo9si-GueQBWzHtH-14" value="" style="endArrow=none;dashed=1;html=1;dashPattern=1 3;strokeWidth=2;rounded=0;entryX=0.5;entryY=1;entryDx=0;entryDy=0;" edge="1" parent="1" target="5okOZo9si-GueQBWzHtH-2">
          <mxGeometry width="50" height="50" relative="1" as="geometry">
            <mxPoint x="210" y="1190" as="sourcePoint" />
            <mxPoint x="215" y="840" as="targetPoint" />
          </mxGeometry>
        </mxCell>
        <mxCell id="5okOZo9si-GueQBWzHtH-15" value="User" style="rounded=0;whiteSpace=wrap;html=1;" vertex="1" parent="1">
          <mxGeometry x="570" y="810" width="150" height="30" as="geometry" />
        </mxCell>
        <mxCell id="5okOZo9si-GueQBWzHtH-16" value="" style="endArrow=none;dashed=1;html=1;dashPattern=1 3;strokeWidth=2;rounded=0;entryX=0.5;entryY=1;entryDx=0;entryDy=0;" edge="1" parent="1" source="5okOZo9si-GueQBWzHtH-18" target="5okOZo9si-GueQBWzHtH-15">
          <mxGeometry width="50" height="50" relative="1" as="geometry">
            <mxPoint x="645" y="1350" as="sourcePoint" />
            <mxPoint x="640" y="950" as="targetPoint" />
          </mxGeometry>
        </mxCell>
        <mxCell id="5okOZo9si-GueQBWzHtH-17" value="" style="endArrow=none;dashed=1;html=1;dashPattern=1 3;strokeWidth=2;rounded=0;entryX=0.5;entryY=1;entryDx=0;entryDy=0;" edge="1" parent="1" target="5okOZo9si-GueQBWzHtH-18">
          <mxGeometry width="50" height="50" relative="1" as="geometry">
            <mxPoint x="645" y="1200" as="sourcePoint" />
            <mxPoint x="645" y="840" as="targetPoint" />
          </mxGeometry>
        </mxCell>
        <mxCell id="5okOZo9si-GueQBWzHtH-18" value="" style="rounded=0;whiteSpace=wrap;html=1;" vertex="1" parent="1">
          <mxGeometry x="635" y="1080" width="20" height="60" as="geometry" />
        </mxCell>
        <mxCell id="5okOZo9si-GueQBWzHtH-19" value="" style="endArrow=classic;html=1;rounded=0;fillColor=#f8cecc;strokeColor=#b85450;" edge="1" parent="1">
          <mxGeometry width="50" height="50" relative="1" as="geometry">
            <mxPoint x="220" y="955" as="sourcePoint" />
            <mxPoint x="210" y="995" as="targetPoint" />
            <Array as="points">
              <mxPoint x="270" y="955" />
              <mxPoint x="270" y="995" />
            </Array>
          </mxGeometry>
        </mxCell>
        <mxCell id="5okOZo9si-GueQBWzHtH-20" value="token_required()" style="edgeLabel;html=1;align=center;verticalAlign=middle;resizable=0;points=[];" vertex="1" connectable="0" parent="5okOZo9si-GueQBWzHtH-19">
          <mxGeometry x="-0.6118" y="-2" relative="1" as="geometry">
            <mxPoint x="21" y="-12" as="offset" />
          </mxGeometry>
        </mxCell>
        <mxCell id="5okOZo9si-GueQBWzHtH-21" value="Permission Manager" style="rounded=0;whiteSpace=wrap;html=1;" vertex="1" parent="1">
          <mxGeometry x="350" y="810" width="150" height="30" as="geometry" />
        </mxCell>
        <mxCell id="5okOZo9si-GueQBWzHtH-22" value="" style="endArrow=none;dashed=1;html=1;dashPattern=1 3;strokeWidth=2;rounded=0;entryX=0.5;entryY=1;entryDx=0;entryDy=0;" edge="1" parent="1" source="5okOZo9si-GueQBWzHtH-1" target="5okOZo9si-GueQBWzHtH-21">
          <mxGeometry width="50" height="50" relative="1" as="geometry">
            <mxPoint x="430" y="1300" as="sourcePoint" />
            <mxPoint x="420" y="950" as="targetPoint" />
          </mxGeometry>
        </mxCell>
        <mxCell id="5okOZo9si-GueQBWzHtH-23" value="" style="endArrow=classic;html=1;rounded=0;fillColor=#f8cecc;strokeColor=#b85450;" edge="1" parent="1">
          <mxGeometry width="50" height="50" relative="1" as="geometry">
            <mxPoint x="220" y="1030" as="sourcePoint" />
            <mxPoint x="420" y="1030" as="targetPoint" />
          </mxGeometry>
        </mxCell>
        <mxCell id="5okOZo9si-GueQBWzHtH-24" value="checkPermissions()" style="edgeLabel;html=1;align=center;verticalAlign=middle;resizable=0;points=[];" vertex="1" connectable="0" parent="5okOZo9si-GueQBWzHtH-23">
          <mxGeometry x="-0.6118" y="-2" relative="1" as="geometry">
            <mxPoint x="53" y="-12" as="offset" />
          </mxGeometry>
        </mxCell>
        <mxCell id="5okOZo9si-GueQBWzHtH-25" value="" style="endArrow=none;html=1;rounded=0;dashed=1;dashPattern=8 8;startArrow=classic;startFill=1;endFill=0;fillColor=#f8cecc;strokeColor=#b85450;" edge="1" parent="1">
          <mxGeometry width="50" height="50" relative="1" as="geometry">
            <mxPoint x="220" y="1060" as="sourcePoint" />
            <mxPoint x="420" y="1060" as="targetPoint" />
          </mxGeometry>
        </mxCell>
        <mxCell id="5okOZo9si-GueQBWzHtH-26" value="conformation" style="edgeLabel;html=1;align=center;verticalAlign=middle;resizable=0;points=[];" vertex="1" connectable="0" parent="5okOZo9si-GueQBWzHtH-25">
          <mxGeometry x="0.2972" y="2" relative="1" as="geometry">
            <mxPoint x="-33" y="-8" as="offset" />
          </mxGeometry>
        </mxCell>
        <mxCell id="5okOZo9si-GueQBWzHtH-27" value="" style="endArrow=none;dashed=1;html=1;dashPattern=1 3;strokeWidth=2;rounded=0;entryX=0.5;entryY=1;entryDx=0;entryDy=0;exitX=0.5;exitY=1;exitDx=0;exitDy=0;" edge="1" parent="1" source="5okOZo9si-GueQBWzHtH-1" target="5okOZo9si-GueQBWzHtH-1">
          <mxGeometry width="50" height="50" relative="1" as="geometry">
            <mxPoint x="425" y="1170" as="sourcePoint" />
            <mxPoint x="425" y="840" as="targetPoint" />
          </mxGeometry>
        </mxCell>
        <mxCell id="5okOZo9si-GueQBWzHtH-28" value="&lt;font style=&quot;font-size: 19px;&quot;&gt;\REGISTRATION-MANAGMENT&lt;/font&gt;" style="shape=note;whiteSpace=wrap;html=1;backgroundOutline=1;darkOpacity=0.05;" vertex="1" parent="1">
          <mxGeometry x="60" y="1230" width="230" height="80" as="geometry" />
        </mxCell>
        <mxCell id="5okOZo9si-GueQBWzHtH-29" value="" style="rounded=0;whiteSpace=wrap;html=1;" vertex="1" parent="1">
          <mxGeometry x="475" y="1540" width="20" height="60" as="geometry" />
        </mxCell>
        <mxCell id="5okOZo9si-GueQBWzHtH-30" value="" style="rounded=0;whiteSpace=wrap;html=1;" vertex="1" parent="1">
          <mxGeometry x="260" y="1410" width="20" height="340" as="geometry" />
        </mxCell>
        <mxCell id="5okOZo9si-GueQBWzHtH-31" value="System" style="rounded=0;whiteSpace=wrap;html=1;" vertex="1" parent="1">
          <mxGeometry x="200" y="1340" width="150" height="30" as="geometry" />
        </mxCell>
        <mxCell id="5okOZo9si-GueQBWzHtH-32" value="" style="endArrow=none;dashed=1;html=1;dashPattern=1 3;strokeWidth=2;rounded=0;entryX=0.5;entryY=1;entryDx=0;entryDy=0;" edge="1" parent="1" source="5okOZo9si-GueQBWzHtH-30" target="5okOZo9si-GueQBWzHtH-31">
          <mxGeometry width="50" height="50" relative="1" as="geometry">
            <mxPoint x="275" y="1830" as="sourcePoint" />
            <mxPoint x="540" y="1510" as="targetPoint" />
          </mxGeometry>
        </mxCell>
        <mxCell id="5okOZo9si-GueQBWzHtH-33" value="" style="endArrow=classic;html=1;rounded=0;" edge="1" parent="1">
          <mxGeometry width="50" height="50" relative="1" as="geometry">
            <mxPoint x="130" y="1390" as="sourcePoint" />
            <mxPoint x="270" y="1390" as="targetPoint" />
          </mxGeometry>
        </mxCell>
        <mxCell id="5okOZo9si-GueQBWzHtH-34" value="Admin" style="edgeLabel;html=1;align=center;verticalAlign=middle;resizable=0;points=[];" vertex="1" connectable="0" parent="5okOZo9si-GueQBWzHtH-33">
          <mxGeometry x="-0.6118" y="-2" relative="1" as="geometry">
            <mxPoint x="23" y="-12" as="offset" />
          </mxGeometry>
        </mxCell>
        <mxCell id="5okOZo9si-GueQBWzHtH-35" value="" style="endArrow=classic;html=1;rounded=0;" edge="1" parent="1">
          <mxGeometry width="50" height="50" relative="1" as="geometry">
            <mxPoint x="280" y="1420" as="sourcePoint" />
            <mxPoint x="270" y="1460" as="targetPoint" />
            <Array as="points">
              <mxPoint x="330" y="1420" />
              <mxPoint x="330" y="1460" />
            </Array>
          </mxGeometry>
        </mxCell>
        <mxCell id="5okOZo9si-GueQBWzHtH-36" value="manageAccount()" style="edgeLabel;html=1;align=center;verticalAlign=middle;resizable=0;points=[];" vertex="1" connectable="0" parent="5okOZo9si-GueQBWzHtH-35">
          <mxGeometry x="-0.6118" y="-2" relative="1" as="geometry">
            <mxPoint x="21" y="-12" as="offset" />
          </mxGeometry>
        </mxCell>
        <mxCell id="5okOZo9si-GueQBWzHtH-37" value="" style="endArrow=classic;html=1;rounded=0;" edge="1" parent="1">
          <mxGeometry width="50" height="50" relative="1" as="geometry">
            <mxPoint x="280" y="1620" as="sourcePoint" />
            <mxPoint x="690" y="1620" as="targetPoint" />
          </mxGeometry>
        </mxCell>
        <mxCell id="5okOZo9si-GueQBWzHtH-38" value="requestListOfPending()" style="edgeLabel;html=1;align=center;verticalAlign=middle;resizable=0;points=[];" vertex="1" connectable="0" parent="5okOZo9si-GueQBWzHtH-37">
          <mxGeometry x="-0.6118" y="-2" relative="1" as="geometry">
            <mxPoint x="101" y="-12" as="offset" />
          </mxGeometry>
        </mxCell>
        <mxCell id="5okOZo9si-GueQBWzHtH-39" value="" style="endArrow=none;html=1;rounded=0;dashed=1;dashPattern=8 8;startArrow=classic;startFill=1;endFill=0;" edge="1" parent="1">
          <mxGeometry width="50" height="50" relative="1" as="geometry">
            <mxPoint x="285" y="1660" as="sourcePoint" />
            <mxPoint x="695" y="1660" as="targetPoint" />
          </mxGeometry>
        </mxCell>
        <mxCell id="5okOZo9si-GueQBWzHtH-40" value="info in jason" style="edgeLabel;html=1;align=center;verticalAlign=middle;resizable=0;points=[];" vertex="1" connectable="0" parent="5okOZo9si-GueQBWzHtH-39">
          <mxGeometry x="0.2972" y="2" relative="1" as="geometry">
            <mxPoint x="-71" y="-8" as="offset" />
          </mxGeometry>
        </mxCell>
        <mxCell id="5okOZo9si-GueQBWzHtH-41" value="" style="endArrow=none;dashed=1;html=1;dashPattern=1 3;strokeWidth=2;rounded=0;entryX=0.5;entryY=1;entryDx=0;entryDy=0;" edge="1" parent="1" target="5okOZo9si-GueQBWzHtH-30">
          <mxGeometry width="50" height="50" relative="1" as="geometry">
            <mxPoint x="270" y="1790" as="sourcePoint" />
            <mxPoint x="275" y="1370" as="targetPoint" />
          </mxGeometry>
        </mxCell>
        <mxCell id="5okOZo9si-GueQBWzHtH-42" value="User" style="rounded=0;whiteSpace=wrap;html=1;" vertex="1" parent="1">
          <mxGeometry x="630" y="1340" width="150" height="30" as="geometry" />
        </mxCell>
        <mxCell id="5okOZo9si-GueQBWzHtH-43" value="" style="endArrow=none;dashed=1;html=1;dashPattern=1 3;strokeWidth=2;rounded=0;entryX=0.5;entryY=1;entryDx=0;entryDy=0;" edge="1" parent="1" source="5okOZo9si-GueQBWzHtH-45" target="5okOZo9si-GueQBWzHtH-42">
          <mxGeometry width="50" height="50" relative="1" as="geometry">
            <mxPoint x="705" y="1880" as="sourcePoint" />
            <mxPoint x="700" y="1480" as="targetPoint" />
          </mxGeometry>
        </mxCell>
        <mxCell id="5okOZo9si-GueQBWzHtH-44" value="" style="endArrow=none;dashed=1;html=1;dashPattern=1 3;strokeWidth=2;rounded=0;entryX=0.5;entryY=1;entryDx=0;entryDy=0;" edge="1" parent="1" target="5okOZo9si-GueQBWzHtH-45">
          <mxGeometry width="50" height="50" relative="1" as="geometry">
            <mxPoint x="705" y="1730" as="sourcePoint" />
            <mxPoint x="705" y="1370" as="targetPoint" />
          </mxGeometry>
        </mxCell>
        <mxCell id="5okOZo9si-GueQBWzHtH-45" value="" style="rounded=0;whiteSpace=wrap;html=1;" vertex="1" parent="1">
          <mxGeometry x="695" y="1610" width="20" height="60" as="geometry" />
        </mxCell>
        <mxCell id="5okOZo9si-GueQBWzHtH-46" value="" style="endArrow=classic;html=1;rounded=0;fillColor=#f8cecc;strokeColor=#b85450;" edge="1" parent="1">
          <mxGeometry width="50" height="50" relative="1" as="geometry">
            <mxPoint x="280" y="1485" as="sourcePoint" />
            <mxPoint x="270" y="1525" as="targetPoint" />
            <Array as="points">
              <mxPoint x="330" y="1485" />
              <mxPoint x="330" y="1525" />
            </Array>
          </mxGeometry>
        </mxCell>
        <mxCell id="5okOZo9si-GueQBWzHtH-47" value="token_required()" style="edgeLabel;html=1;align=center;verticalAlign=middle;resizable=0;points=[];" vertex="1" connectable="0" parent="5okOZo9si-GueQBWzHtH-46">
          <mxGeometry x="-0.6118" y="-2" relative="1" as="geometry">
            <mxPoint x="21" y="-12" as="offset" />
          </mxGeometry>
        </mxCell>
        <mxCell id="5okOZo9si-GueQBWzHtH-48" value="Permission Manager" style="rounded=0;whiteSpace=wrap;html=1;" vertex="1" parent="1">
          <mxGeometry x="410" y="1340" width="150" height="30" as="geometry" />
        </mxCell>
        <mxCell id="5okOZo9si-GueQBWzHtH-49" value="" style="endArrow=none;dashed=1;html=1;dashPattern=1 3;strokeWidth=2;rounded=0;entryX=0.5;entryY=1;entryDx=0;entryDy=0;" edge="1" parent="1" source="5okOZo9si-GueQBWzHtH-29" target="5okOZo9si-GueQBWzHtH-48">
          <mxGeometry width="50" height="50" relative="1" as="geometry">
            <mxPoint x="490" y="1830" as="sourcePoint" />
            <mxPoint x="480" y="1480" as="targetPoint" />
          </mxGeometry>
        </mxCell>
        <mxCell id="5okOZo9si-GueQBWzHtH-50" value="" style="endArrow=classic;html=1;rounded=0;fillColor=#f8cecc;strokeColor=#b85450;" edge="1" parent="1">
          <mxGeometry width="50" height="50" relative="1" as="geometry">
            <mxPoint x="280" y="1560" as="sourcePoint" />
            <mxPoint x="480" y="1560" as="targetPoint" />
          </mxGeometry>
        </mxCell>
        <mxCell id="5okOZo9si-GueQBWzHtH-51" value="checkPermissions()" style="edgeLabel;html=1;align=center;verticalAlign=middle;resizable=0;points=[];" vertex="1" connectable="0" parent="5okOZo9si-GueQBWzHtH-50">
          <mxGeometry x="-0.6118" y="-2" relative="1" as="geometry">
            <mxPoint x="53" y="-12" as="offset" />
          </mxGeometry>
        </mxCell>
        <mxCell id="5okOZo9si-GueQBWzHtH-52" value="" style="endArrow=none;html=1;rounded=0;dashed=1;dashPattern=8 8;startArrow=classic;startFill=1;endFill=0;fillColor=#f8cecc;strokeColor=#b85450;" edge="1" parent="1">
          <mxGeometry width="50" height="50" relative="1" as="geometry">
            <mxPoint x="280" y="1590" as="sourcePoint" />
            <mxPoint x="480" y="1590" as="targetPoint" />
          </mxGeometry>
        </mxCell>
        <mxCell id="5okOZo9si-GueQBWzHtH-53" value="conformation" style="edgeLabel;html=1;align=center;verticalAlign=middle;resizable=0;points=[];" vertex="1" connectable="0" parent="5okOZo9si-GueQBWzHtH-52">
          <mxGeometry x="0.2972" y="2" relative="1" as="geometry">
            <mxPoint x="-33" y="-8" as="offset" />
          </mxGeometry>
        </mxCell>
        <mxCell id="5okOZo9si-GueQBWzHtH-54" value="" style="endArrow=none;dashed=1;html=1;dashPattern=1 3;strokeWidth=2;rounded=0;entryX=0.5;entryY=1;entryDx=0;entryDy=0;exitX=0.5;exitY=1;exitDx=0;exitDy=0;" edge="1" parent="1" source="5okOZo9si-GueQBWzHtH-29" target="5okOZo9si-GueQBWzHtH-29">
          <mxGeometry width="50" height="50" relative="1" as="geometry">
            <mxPoint x="485" y="1700" as="sourcePoint" />
            <mxPoint x="485" y="1370" as="targetPoint" />
          </mxGeometry>
        </mxCell>
        <mxCell id="5okOZo9si-GueQBWzHtH-55" value="" style="endArrow=classic;html=1;rounded=0;" edge="1" parent="1">
          <mxGeometry width="50" height="50" relative="1" as="geometry">
            <mxPoint x="280" y="1700" as="sourcePoint" />
            <mxPoint x="690" y="1700" as="targetPoint" />
          </mxGeometry>
        </mxCell>
        <mxCell id="5okOZo9si-GueQBWzHtH-56" value="aprovePatient()" style="edgeLabel;html=1;align=center;verticalAlign=middle;resizable=0;points=[];" vertex="1" connectable="0" parent="5okOZo9si-GueQBWzHtH-55">
          <mxGeometry x="-0.6118" y="-2" relative="1" as="geometry">
            <mxPoint x="101" y="-12" as="offset" />
          </mxGeometry>
        </mxCell>
        <mxCell id="5okOZo9si-GueQBWzHtH-57" value="" style="rounded=0;whiteSpace=wrap;html=1;" vertex="1" parent="1">
          <mxGeometry x="695" y="1690" width="20" height="60" as="geometry" />
        </mxCell>
        <mxCell id="5okOZo9si-GueQBWzHtH-58" value="" style="endArrow=none;html=1;rounded=0;dashed=1;dashPattern=8 8;startArrow=classic;startFill=1;endFill=0;" edge="1" parent="1">
          <mxGeometry width="50" height="50" relative="1" as="geometry">
            <mxPoint x="280" y="1730" as="sourcePoint" />
            <mxPoint x="690" y="1730" as="targetPoint" />
          </mxGeometry>
        </mxCell>
        <mxCell id="5okOZo9si-GueQBWzHtH-59" value="conformation()" style="edgeLabel;html=1;align=center;verticalAlign=middle;resizable=0;points=[];" vertex="1" connectable="0" parent="5okOZo9si-GueQBWzHtH-58">
          <mxGeometry x="0.2972" y="2" relative="1" as="geometry">
            <mxPoint x="-71" y="-8" as="offset" />
          </mxGeometry>
        </mxCell>
        <mxCell id="5okOZo9si-GueQBWzHtH-60" value="" style="endArrow=classic;html=1;rounded=0;" edge="1" parent="1">
          <mxGeometry width="50" height="50" relative="1" as="geometry">
            <mxPoint x="280" y="1780" as="sourcePoint" />
            <mxPoint x="690" y="1780" as="targetPoint" />
          </mxGeometry>
        </mxCell>
        <mxCell id="5okOZo9si-GueQBWzHtH-61" value="createWorker()" style="edgeLabel;html=1;align=center;verticalAlign=middle;resizable=0;points=[];" vertex="1" connectable="0" parent="5okOZo9si-GueQBWzHtH-60">
          <mxGeometry x="-0.6118" y="-2" relative="1" as="geometry">
            <mxPoint x="101" y="-12" as="offset" />
          </mxGeometry>
        </mxCell>
        <mxCell id="5okOZo9si-GueQBWzHtH-62" value="" style="endArrow=classic;html=1;rounded=0;" edge="1" parent="1">
          <mxGeometry width="50" height="50" relative="1" as="geometry">
            <mxPoint x="285" y="1830" as="sourcePoint" />
            <mxPoint x="695" y="1830" as="targetPoint" />
          </mxGeometry>
        </mxCell>
        <mxCell id="5okOZo9si-GueQBWzHtH-63" value="deleteAccount()" style="edgeLabel;html=1;align=center;verticalAlign=middle;resizable=0;points=[];" vertex="1" connectable="0" parent="5okOZo9si-GueQBWzHtH-62">
          <mxGeometry x="-0.6118" y="-2" relative="1" as="geometry">
            <mxPoint x="101" y="-12" as="offset" />
          </mxGeometry>
        </mxCell>
      </root>
    </mxGraphModel>
  </diagram>
</mxfile>
